<?xml version="1.0" encoding="utf-8"?>
<!DOCTYPE svg PUBLIC "-//W3C//DTD SVG 1.1//EN" "http://www.w3.org/Graphics/SVG/1.1/DTD/svg11.dtd">
<svg version="1.1" xmlns="http://www.w3.org/2000/svg">
  <defs>
                <mask id="mask-demo" maskUnits="userSpaceOnUse"> 
      <path fill="white" d="M0,43v0.5V44v0.5v1V46v0.5v1V48v0.5V49v0.5V50v0.5V51v0.5V52v0.5V53v0.5V54v0.5V55
  v1v0.5V57v0.5V58v0.5v1V60v0.5V61v0.5v1V63v0.5v1V65v0.5V66v0.5v1V68v0.5V69v0.5V70v0.5V71v0.5V72v0.5V73v0.5V74v0.5v1V76v0.5V77
  v0.5V78v0.5V79v0.5V80v0.5V81v0.5V82v0.5V83v0.5V84v0.5V85v0.5V86v0.5V87v0.5V88v0.5V89v0.5V90v0.5V91v0.5v1V93v0.5V94v0.5V95v0.5
  V96v0.5V97v0.5V98v0.5V99v0.5v1v0.5v0.5v0.5v0.5v1v0.5v0.5v1v0.5v0.5v0.5v0.5v1v0.5v0.5v0.5v0.5v0.5v1v0.5v0.5v0.5v0.5v0.5v0.5v0.5
  v0.5v0.5v0.5v0.5v0.5v0.5v0.5v0.5v1v0.5v0.5v1v0.5v0.5v0.5v0.5v0.5v0.5v0.5v0.5v1v0.5v0.5v1v0.5v0.5v0.5v0.5v0.5v0.5v0.5v0.5v0.5
  v0.5v0.5v0.5v0.5v0.5v0.5v1.5v0.5v1v0.5v0.5v8v2v8.5v2c0,3.87,1.646,5.5,5.555,5.5h1.01h17.17h1.01h11.11h1.01h2.02h1.01h2.02h1.01
  h6.06h1.01h4.04h1.01h1.01h1.01h1.01h2.02h1.01h6.06h1.01h1.01h1.01h2.02h1.01h1.01h1.01h1.01h3.03h1.01h2.02h1.01h2.02h1.01h1.01
  h1.01h1.01h1.01h1.01h1.01h1.01h1.01h3.03h1.01h1.01h1.01h1.01h2.02h1.01h1.01h1.01h1.01h1.01h2.02h1.01h1.01h1.01h2.02h1.01h1.01
  h1.01h1.01h1.01h2.02h1.01h1.01h1.01h1.01h2.02h1.01h1.01h1.01h1.01h1.01h1.01h1.01h1.01h1.01h1.01h2.02h1.01h1.01h1.01h1.01h2.02
  h1.01h1.01h1.01h1.01h1.01h1.01h1.01h1.01h1.01h1.01h3.03h1.01h1.01h1.01h1.01h1.01h1.01h1.01h1.01h1.01h1.01h1.01h1.01h1.01h1.01
  h1.01h1.01h2.02h1.01h1.01h1.01h1.01h1.01h1.01h1.01h1.01h1.01h1.01h1.01h1.01h1.01h1.01h1.01h1.01h2.02h1.01h1.01h1.01h1.01h1.01
  h1.01h1.01h1.01h1.01h1.01h1.01h1.01h1.01h1.01h1.01h1.01h1.01h1.01h1.01h1.01h1.01h0.505h0.505h1.01h1.01h1.01h1.01h1.01h1.01h1.01
  h1.01h1.01h1.01h1.01h1.01h1.01h1.01h1.01h1.01h1.01h1.01h1.01h1.01h1.01h1.01h1.01h1.01h1.01h1.01h1.01h1.01h1.01h1.01h1.01h1.01
  h1.01h1.01h2.02h1.01h1.01h1.011h1.01h1.01h1.01h1.011h1.01h1.01h1.01h1.011h1.01h1.01h1.01h1.011h1.01h2.02h1.01h1.011h1.01h1.01
  h1.01h1.011h1.01h1.01h1.01h1.011h1.01h1.01h1.01h1.011h1.01h1.01h3.03h1.01h1.01h1.011h1.01h1.01h1.01h1.01h1.011h1.01h1.01h2.021
  h1.01h1.01h1.01h1.011h2.02h1.01h1.011h1.01h1.01h1.01h1.011h1.01h1.01h1.01h1.011h1.01h1.01h1.01h1.01h1.011h1.01h1.01h1.01h1.011
  h1.01h1.01h1.01h1.011h2.02h1.01h1.011h1.01h1.01h1.01h1.011h1.01h1.01h1.01h1.011h1.01h1.01h1.01h1.01h1.011h1.01h2.02h1.011h1.01
  h1.01h1.01h1.011h1.01h1.01h1.01h1.011h1.01h1.01h1.01h1.011h1.01h1.01h1.01h1.011h1.01h1.01h1.01h1.01h1.011h1.01h2.02h1.011h1.01
  h1.01h1.01h2.021h1.01h1.01h1.011h1.01h1.01h1.01h1.011h1.01h1.01h1.01h3.03h1.01h1.01h1.011h1.01h1.01h1.01h1.011h1.01h1.01h1.01
  h1.011h1.01h1.01h1.01h1.011h1.01h2.02h1.011h1.01h1.01h1.01h1.011h1.01h1.01h1.01h1.01h1.011h1.01h1.01h1.01h1.011h1.01h1.01h2.021
  h1.01h1.01h1.01h1.011h1.01h1.01h1.01h1.011h1.01h1.01h1.01h1.011h1.01h1.01h1.01h1.01h1.011h1.01h1.01h1.01h1.011h1.01h1.01h1.01
  h1.011h1.01h1.01h1.01h1.011h1.01h1.01h1.01h1.011h1.01h1.01h1.01h1.011h1.01h1.01h1.01h1.01h1.011h1.01h1.01h1.01h1.011h1.01h1.01
  h1.01h1.011h1.01h1.01h1.01h1.011h1.01h1.01h2.021h1.01h1.01h1.01h1.011h1.01h1.01h1.01h1.01h1.011h1.01h1.01h1.01h1.011h1.01h1.01
  h1.01h2.021h1.01h1.01h1.011h1.01h1.01h1.01h1.011h1.01h1.01h1.01h1.011h1.01h1.01h1.01h1.01h1.011h3.029h1.011h1.01h1.01h1.01
  h1.011h1.01h1.01h1.01h1.011h1.01h2.02h0.505h0.506h1.01h1.01h1.01h1.011h1.01h1.01h1.01h1.01h1.011h1.01h1.01h1.01h1.011h1.01h1.01
  h1.01h1.011h1.01h1.01h1.01h1.011h2.02h1.01h1.011h1.01h1.01h1.01h2.021h1.01h1.01h1.01h1.011h1.01h1.01h1.01h1.011h1.01h1.01h1.01
  h1.011h1.01h1.01h1.01h1.011h2.02h1.01h1.011h1.01h1.01h1.01h1.011h1.01h1.01h1.01h1.01h2.021h1.01h2.021h1.01h2.02h1.011h1.01h1.01
  h1.01h1.011h2.02h1.01h1.011h1.01h5.05h1.01h1.01h1.011h1.01h1.01h1.01h1.011h1.01h3.535h6.564h1.011h17.17h1.01
  c3.909,0,5.555-1.63,5.555-5.5v-2V151v-2v-8v-0.5V140v-0.5V139v-0.5v-1V137v-0.5V136v-0.5V135v-0.5V134v-0.5V133v-0.5V132v-0.5V131
  v-0.5V130v-0.5v-1V128v-0.5V127v-0.5V126v-0.5V125v-0.5V124v-0.5V123v-0.5V122v-0.5V121v-0.5V120v-0.5V119v-0.5V118v-0.5V117v-0.5
  V116v-0.5V115v-0.5V114v-0.5V113v-0.5V112v-0.5V111v-0.5V110v-0.5V109v-0.5V108v-0.5V107v-0.5V106v-0.5V105v-0.5V104v-0.5V103v-0.5
  V102v-0.5V101v-0.5V100v-0.5V99v-0.5V98v-0.5V97v-0.5V96v-0.5V95v-0.5V94v-0.5V93v-0.5v-1V91v-0.5V90v-0.5V89v-0.5V88v-0.5V87v-0.5
  V86v-0.5V85v-0.5V84v-0.5V83v-0.5V82v-0.5V81v-0.5V80v-0.5V79v-0.5V78v-0.5V77v-0.5V76v-0.5V75v-0.5V74v-0.5V73v-0.5V72v-0.5V71
  v-0.5V70v-0.5V69v-0.5V68v-7v-2v-8.5v-2c0-3.87-1.646-5.5-5.555-5.5h-1.01h-17.17h-1.011h-6.564h-3.535h-1.01h-1.011h-1.01h-1.01
  h-1.01h-1.011h-1.01h-1.01h-5.05h-1.01h-1.011h-1.01h-2.02h-1.011h-1.01h-1.01h-1.01h-1.011h-2.02h-1.01h-2.021h-1.01h-2.021h-1.01
  h-1.01h-1.01h-1.01h-1.011h-1.01h-1.01h-1.01h-1.011h-1.01h-2.02h-1.011h-1.01h-1.01h-1.01h-1.011h-1.01h-1.01h-1.01h-1.011h-1.01
  h-1.01h-1.01h-1.011h-1.01h-1.01h-1.01h-2.021h-1.01h-1.01h-1.01h-1.011h-1.01h-2.02h-1.011h-1.01h-1.01h-1.01h-1.011h-1.01h-1.01
  h-1.01h-0.505h-0.506h-1.01h-1.01h-1.01h-1.011h-1.01h-1.01h-1.01h-1.01h-1.011h-1.01h-1.01h-1.01h-0.506h-0.505h-2.02h-1.01h-1.011
  h-1.01h-1.01h-1.01h-1.011h-1.01h-1.01h-1.01h-1.011h-3.029h-1.011h-1.01h-1.01h-1.01h-1.01h-1.011h-1.01h-1.01h-1.01h-1.011h-1.01
  h-1.01h-1.01h-1.011h-1.01h-1.01h-2.021h-1.01h-1.01h-1.01h-1.011h-1.01h-1.01h-1.01h-1.011h-1.01h-1.01h-1.01h-1.01h-1.011h-1.01
  h-1.01h-1.01h-2.021h-1.01h-1.01h-1.011h-1.01h-1.01h-1.01h-1.011h-1.01h-1.01h-1.01h-1.011h-1.01h-1.01h-1.01h-1.011h-1.01h-1.01
  h-1.01h-1.01h-1.011h-0.505h-18.766l-0.232-0.5L451.44,42l-0.232-0.5l-0.223-0.5l-0.232-0.5l-0.454-1l-0.233-0.5l-0.221-0.5
  l-0.456-1l-0.231-0.5l-0.231-0.5l-0.223-0.5l-0.233-0.5l-0.221-0.5l-0.232-0.5l-0.233-0.5l-0.222-0.5L447.33,33l-0.224-0.5
  l-0.231-0.5l-0.222-0.5l-0.233-0.5l-0.232-0.5l-0.222-0.5l-0.687-1.5l-0.222-0.5l-0.466-1l-0.221-0.5l-0.233-0.5l-3.646-8l-0.908-2
  l-3.878-8.5l-0.92-2c-1.767-3.87-4.151-5.5-8.06-5.5h-1.011h-17.17h-1.01h-11.109h-1.011h-2.02h-1.01h-2.021h-1.01h-6.061h-1.01
  h-4.04h-1.01h-1.01h-1.011h-1.01h-2.02h-1.01h-6.061h-1.01h-1.01h-1.011h-2.02h-1.01h-1.011h-1.01h-1.01h-3.03h-1.01h-2.021h-1.01
  h-2.02h-1.01h-1.011h-1.01h-1.01h-1.01h-1.011h-1.01h-1.01h-1.01h-3.03h-1.01h-1.011h-1.01h-1.01h-2.021h-1.01h-1.01h-1.01h-1.011
  h-1.01h-2.02h-1.01h-1.011h-1.01h-2.02h-1.011h-1.01h-1.01h-1.01h-1.011h-2.02h-1.01h-1.011h-1.01h-1.01h-2.021h-1.01h-1.01h-1.01
  h-1.011h-1.01h-1.01h-1.01h-1.01h-1.011h-1.01h-2.02h-1.011h-1.01h-1.01h-1.01h-2.021h-1.01h-1.01h-1.011h-1.01h-1.01h-1.01h-0.505
  h-0.506h-1.01h-1.01h-1.01h-1.011h-1.01h-1.01h-1.01h-1.01h-1.011h-1.01h-1.01h-1.01h-1.011h-1.01h-1.01h-1.01h-1.011h-1.01h-1.01
  h-1.01h-1.011h-1.01h-1.01h-1.01h-1.01h-1.01h-1.01h-1.01h-1.01h-1.01h-1.01h-1.01h-1.01h-1.01h-1.01h-1.01h-1.01h-1.01h-1.01h-1.01
  h-1.01h-1.01h-1.01h-1.01h-1.01h-1.01h-1.01h-1.01h-1.01h-1.01h-1.01h-1.01h-1.01h-1.01h-1.01h-1.01h-1.01h-1.01h-1.01h-0.505
  h-0.505h-1.01h-1.01h-1.01h-1.01h-1.01h-1.01h-1.01h-1.01h-1.01h-1.01h-1.01h-1.01h-1.01h-1.01h-1.01h-1.01h-1.01h-1.01h-1.01h-1.01
  h-1.01h-1.01h-1.01h-1.01h-1.01h-1.01h-1.01h-1.01h-1.01h-1.01h-1.01h-1.01h-1.01h-1.01h-1.01h-1.01h-1.01h-1.01h-1.01h-1.01h-1.01
  h-1.01h-1.01h-1.01h-1.01h-1.01h-1.01h-1.01h-1.01h-1.01h-1.01h-1.01h-1.01h-1.01h-1.01h-1.01h-1.01h-1.01h-1.01h-1.01h-1.01h-1.01
  h-1.01h-0.505h-0.505h-1.01h-1.01h-1.01h-1.01h-1.01h-1.01h-2.02h-1.01h-1.01h-1.01h-1.01h-2.02h-1.01h-1.01h-1.01h-1.01h-1.01
  h-1.01h-1.01h-1.01h-1.01h-1.01h-2.02h-1.01h-1.01h-1.01h-1.01h-2.02h-1.01h-1.01h-1.01h-1.01h-1.01h-2.02h-1.01h-1.01h-1.01h-2.02
  h-1.01h-1.01h-1.01h-1.01h-1.01h-2.02h-1.01h-1.01h-1.01h-1.01h-3.03h-1.01h-1.01h-1.01h-1.01h-1.01h-1.01h-1.01h-1.01h-1.01h-2.02
  h-1.01h-2.02h-1.01h-3.03h-1.01h-1.01h-1.01h-1.01h-2.02h-1.01h-1.01h-1.01h-6.06h-1.01h-2.02h-1.01h-1.01h-1.01h-1.01h-4.04h-1.01
  h-6.06h-1.01h-2.02h-1.01h-2.02h-1.01h-11.11h-1.01H6.565h-1.01h-0.03h-0.02H5.484h-0.02H5.443h-0.03H5.393h-0.02
  C1.586,0.05,0,1.68,0,5.5v2V16v2v8v0.5V27v1v0.5V30v0.5V31v0.5V32v0.5V33v0.5V34v0.5V35v0.5V36v0.5V37v0.5v1V39v0.5v1V41v0.5V42v0.5
  V43z"/>
    </mask>
  </defs>
</svg>