<svg width="640" height="480" xmlns="http://www.w3.org/2000/svg">
 <!-- Created with SVG-edit - http://svg-edit.googlecode.com/ -->
 <defs>
  <radialGradient spreadMethod="pad" id="svg_8">
   <stop offset="0" stop-opacity="0.5" stop-color="#bf0000"/>
   <stop offset="0.460938" stop-opacity="0.992188" stop-color="#515050"/>
   <stop offset="1" stop-opacity="0.992188" stop-color="#262525"/>
  </radialGradient>
 </defs>
 <g>
  <title>Layer 1</title>
  <path id="svg_7" d="m370.521149,43.760201c-9.961243,24.544243 -33.946838,41.886658 -62.064941,41.886658c-28.118317,0 -52.103577,-17.342415 -62.042267,-41.886658l-109.210648,165.201637l46.944244,-19.921631l0,205.423752l250.268448,0l0,-204.697845l45.2724,19.207001l-109.167236,-165.212914z" stroke-linecap="null" stroke-linejoin="null" stroke-dasharray="null" stroke-width="3" stroke="#000000" fill="url(#svg_8)"/>
  <path id="svg_3" d="m274,174c0,0 -49.5,-6 -62.5,20.5c-13,26.5 35.5,40 32.5,72c-8.5,3.5 -36,-3.5 -40,0c-4,3.5 -2.5,17 -4,18c33.5,-8.5 45.5,-4 54,-12c8.5,-8 -13,-35.5 -32,-62.5c-10.5,-32 39.5,-26.5 51.5,-19.5c1.5,-7.5 4,-13 0.5,-16.5z" stroke-width="3" stroke="#000000" fill="#ffffff"/>
  <path id="svg_4" d="m260,228.5l10,-8.5l35,86l42,-136l7,25l-2,-63l-47.5,152.5l-39,-89.5l-5.5,33.5z" stroke-linecap="null" stroke-linejoin="null" stroke-dasharray="null" stroke-width="3" stroke="#000000" fill="#ffffff"/>
  <path id="svg_6" d="m403.5,190c8.5,5.5 -27.5,21.5 -40,22.5c-5,2 -38,48.5 5.5,60c43.5,11.5 54.5,-30.5 54.5,-30.5c0,0 -42,-2 -42,-2c0,0 0,6 0,6c0,0 37,-1.5 37,-1.5c0,0 -21.5,28.5 -51,23c-29.5,-5.5 -10.5,-43.5 0.5,-48c11,-4.5 44,-8 35.5,-29.5z" stroke-linecap="null" stroke-linejoin="null" stroke-dasharray="null" stroke-width="3" stroke="#000000" fill="#ffffff"/>
 </g>
</svg>