<svg width="245" height="180" xmlns="http://www.w3.org/2000/svg">
 <g>
  <g id="skull">
   <g transform="matrix(0.511035 0 0 0.511035 -262.11 -215.265)" id="svg_42">
    <g id="svg_43" transform="matrix(0.651999 0 0 0.651999 -51.2309 -96.8247)">
     <g stroke="#000000" font-size="12px" fill="#000000" stroke-opacity="0.991228" id="svg_75">
      <path stroke="#000000" fill="#000000" fill-rule="evenodd" stroke-width="17" stroke-opacity="0.991228" id="svg_79" d="m1231.859863,1061.929077c-9.696045,7.372925 -11.853027,9.848999 -17.210938,18.007935c-1.939087,3.149048 -5.560059,10.508057 -6.550049,15.445068c-0.989014,4.936035 -1.72998,12.0979 -1.727051,15.890991c0.012085,12.853027 4.103027,20.916016 8.571045,20.63501c3.992065,-0.458008 9.072021,-4.621094 16.77002,-14.07605"/>
      <path stroke="#000000" fill="#000000" fill-rule="evenodd" stroke-width="17" stroke-linejoin="bevel" stroke-opacity="0.991228" id="svg_78" d="m1238.841797,1062.137207c9.696045,7.372925 11.853027,9.848999 17.21106,18.007935c1.938965,3.149048 5.559937,10.507935 6.549927,15.445068c0.989014,4.935913 1.730103,12.0979 1.727051,15.890991c-0.011963,12.852905 -4.103027,20.916016 -8.570923,20.634888c-3.992065,-0.457886 -9.072021,-4.620972 -16.77002,-14.075928"/>
      <path stroke="#000000" fill="#000000" fill-rule="evenodd" stroke-width="17" stroke-opacity="0.991228" id="svg_77" d="m1149.44165,1005.77887c13.459961,-2.358948 26.50293,-3.88501 39.963013,-5.41095c17.622925,-4.44104 26.503906,15.679932 21.646973,30.805054c-6.105103,13.460083 -14.708008,25.255005 -24.560059,36.633057c-7.631958,8.603027 -16.723999,9.994995 -25.393921,7.07605c-6.998047,-1.940063 -13.46106,-6.243042 -20.399048,-16.234009c-3.052002,-8.604126 -5.687988,-13.045044 -9.573975,-23.729004c-3.052002,-9.852051 1.694946,-24.600159 18.317017,-29.140198z"/>
      <path stroke="#000000" fill="#000000" fill-rule="evenodd" stroke-width="17" stroke-opacity="0.991228" id="svg_76" d="m1321.523682,1005.77887c-13.459961,-2.358948 -26.503052,-3.88501 -39.963013,-5.41095c-17.623047,-4.44104 -26.504028,15.679932 -21.646973,30.805054c6.10498,13.460083 14.708008,25.255005 24.559937,36.633057c7.63208,8.603027 16.723999,9.994995 25.394043,7.07605c6.998047,-1.940063 13.460938,-6.243042 20.398926,-16.234009c3.052124,-8.604126 5.68811,-13.045044 9.574097,-23.729004c3.052002,-9.852051 -1.695068,-24.600159 -18.317017,-29.140198z"/>
     </g>
     <g stroke="#000000" font-size="12px" stroke-opacity="0.991228" id="svg_44">
      <g stroke="#000000" fill="none" stroke-opacity="0.991228" id="svg_50">
       <g stroke="#000000" font-size="12px" fill="none" stroke-opacity="0.991228" id="svg_57">
        <path stroke="#000000" fill="none" fill-rule="evenodd" stroke-width="17" stroke-opacity="0.991228" id="svg_74" d="m1149.196899,1120.748047c5.689941,13.343994 7.449951,18.415039 11.552979,31.718018c3.495972,12.28894 4.781006,19.793945 6.94104,37.258057"/>
        <path stroke="#000000" fill="none" fill-rule="evenodd" stroke-width="17" stroke-opacity="0.991228" id="svg_73" d="m1321.051147,1120.012085c-5.689941,13.344116 -7.449951,18.415161 -11.552979,31.718018c-3.495972,12.28894 -4.781006,19.794067 -6.94104,37.258057"/>
        <g stroke="#000000" fill="none" stroke-opacity="0.991228" id="svg_58">
         <path stroke="#000000" fill="none" fill-rule="evenodd" stroke-width="17" stroke-opacity="0.991228" id="svg_72" d="m1173.480957,1151.950073c14.717896,9.026978 40.160889,10.418945 62.955933,10.008911c25.393921,-0.128906 47.132935,-1.962891 61.409058,-10.596924"/>
         <path stroke="#000000" fill="none" fill-rule="evenodd" stroke-width="17" stroke-opacity="0.991228" id="svg_71" d="m1178.631836,1175.500122c16.238037,10.203979 35.334106,13.707886 57.32605,12.87793c22.841919,-0.55603 40.350952,-2.478027 56.000977,-13.171997"/>
         <g stroke="#000000" fill="none" stroke-opacity="0.991228" id="svg_59">
          <path stroke="#000000" fill="none" fill-rule="evenodd" stroke-width="17" stroke-opacity="0.991228" id="svg_70" d="m1166.85791,1187.862061c17.366943,20.947998 41.608032,24.584961 69.172974,25.314941c29.518921,1.077026 59.166016,-10.64502 66.81897,-25.313965"/>
          <g stroke="#000000" fill="none" stroke-opacity="0.991228" id="svg_60">
           <path stroke="#000000" fill="none" fill-rule="evenodd" stroke-width="17" stroke-opacity="0.991228" id="svg_69" d="m1178.408936,1156.474121l-0.416016,41.211914"/>
           <path stroke="#000000" fill="none" fill-rule="evenodd" stroke-width="17" stroke-opacity="0.991228" id="svg_68" d="m1191.937866,1160.845093l-0.208008,44.125977"/>
           <path stroke="#000000" fill="none" fill-rule="evenodd" stroke-width="17" stroke-opacity="0.991228" id="svg_67" d="m1206.923828,1162.718018l-0.415894,46.208008"/>
           <path stroke="#000000" fill="none" fill-rule="evenodd" stroke-width="17" stroke-opacity="0.991228" id="svg_66" d="m1220.453857,1163.759033l-0.208984,46.832031"/>
           <path stroke="#000000" fill="none" fill-rule="evenodd" stroke-width="17" stroke-opacity="0.991228" id="svg_65" d="m1235.647827,1164.175049l0,46.832031"/>
           <path stroke="#000000" fill="none" fill-rule="evenodd" stroke-width="17" stroke-opacity="0.991228" id="svg_64" d="m1250.217896,1163.967041l0.208008,46.832031"/>
           <path stroke="#000000" fill="none" fill-rule="evenodd" stroke-width="17" stroke-opacity="0.991228" id="svg_63" d="m1263.330566,1162.718018l0.416016,46"/>
           <path stroke="#000000" fill="none" fill-rule="evenodd" stroke-width="17" stroke-opacity="0.991228" id="svg_62" d="m1278.524902,1160.221069l0.208008,44.125977"/>
           <path stroke="#000000" fill="none" fill-rule="evenodd" stroke-width="17" stroke-opacity="0.991228" id="svg_61" d="m1292.261841,1154.809082l0.416992,41.62793"/>
          </g>
         </g>
        </g>
       </g>
       <g stroke="#000000" font-size="12px" fill="none" stroke-opacity="0.991228" id="svg_51">
        <path stroke="#000000" fill="none" fill-rule="evenodd" stroke-width="17" stroke-linecap="round" stroke-linejoin="round" stroke-opacity="0.991228" id="svg_56" d="m1108.462891,1037.779053c-19.135986,-18.603149 -32.51001,-50.888123 -34.365967,-85.752136c-2.015015,-38.419983 18.218018,-76.570129 48.536987,-98.319153c33.968994,-23.909424 90.765991,-30.522034 126.081909,-28.737549c23.921021,0.016602 77.206055,12.420227 96.015015,26.427673c32.994019,23.990173 50.68811,58.040039 51.914063,96.850037c1.812988,38.983032 -14.605957,68.674988 -34.71106,87.206177"/>
        <path stroke="#000000" fill="none" fill-rule="evenodd" stroke-width="17" stroke-linejoin="round" stroke-opacity="0.991228" id="svg_55" d="m1109.626953,928.484924c-7.752075,6.781982 -6.774048,16.97699 -5.378052,32.192017c1.101929,11.559998 8.477905,22.938965 8.865967,33.5c2.712036,22.284973 -3.875977,44.570129 -6.976929,62.786072c-2.13208,20.928101 3.876953,38.950073 11.62793,45.926025c7.750977,6.880005 17.755981,9.729004 28.268066,12.936035c9.550903,2.497925 14.503906,6.841919 21.727905,12.228027c8.606079,9.136963 10.659058,16.69397 10.464966,25.995972"/>
        <path stroke="#000000" fill="none" fill-rule="evenodd" stroke-width="17" stroke-linejoin="round" stroke-opacity="0.991228" id="svg_54" d="m1362.025635,927.903564c7.751953,6.781982 6.774048,16.97699 5.378052,32.192017c-1.102051,11.559998 -8.478027,22.938904 -8.866089,33.5c-2.711914,22.284973 3.875977,44.570068 6.977051,62.786133c2.13208,20.927979 -3.876953,38.949951 -11.628052,45.925903c-7.750977,6.880005 -21.93689,10.575073 -28.267944,12.936035c-7.376953,2.581055 -14.919922,7.258057 -21.728027,12.644043c-8.189941,7.887939 -10.658936,16.277954 -10.464966,25.580078"/>
        <path stroke="#000000" fill="none" fill-rule="evenodd" stroke-width="17" stroke-opacity="0.991228" id="svg_53" d="m1131.785889,1113.177002c6.937988,16.790039 14.291992,33.164063 14.985962,50.370117c-3.19104,13.875977 -2.219971,30.249878 1.249023,43.293945c4.44104,17.900024 21.786011,39.130005 39.13208,46.207031c17.760864,6.452026 28.861938,8.11792 48.703979,8.11792"/>
        <path stroke="#000000" fill="none" fill-rule="evenodd" stroke-width="17" stroke-opacity="0.991228" id="svg_52" d="m1338.887695,1113.177002c-6.937988,16.790039 -14.291992,33.164063 -14.986084,50.369995c3.19104,13.876099 2.219971,30.25 -1.248901,43.294067c-4.44104,17.900024 -21.994019,38.505981 -39.340088,45.583008c-17.344971,7.076904 -28.444946,8.741943 -48.287964,8.741943"/>
       </g>
      </g>
      <g stroke="#000000" stroke-opacity="0.991228" id="svg_45">
       <path stroke="#000000" fill="none" fill-rule="evenodd" stroke-width="17" stroke-linejoin="round" stroke-opacity="0.991228" id="svg_49" d="m1328.272949,1191.854004l68.271851,31.638062c8.325073,3.468994 14.985107,2.359009 21.230103,0.416016c9.852051,-2.914063 17.62207,-1.248047 25.80896,2.081909c9.852051,4.995117 10.130981,12.072021 3.748047,19.149048c-5.828003,6.799072 -11.656982,10.267944 -18.733032,17.067017c-1.526978,10.962036 -0.555908,21.092041 -5.412964,31.221924c-6.105103,8.880127 -12.626953,7.354004 -22.89502,-2.082031c-10.406982,-8.048828 -6.661011,-16.928955 -21.647095,-29.9729l-63.275879,-32.885986l0,0"/>
       <path stroke="#000000" fill="none" fill-rule="evenodd" stroke-width="17" stroke-linejoin="round" stroke-opacity="0.991228" id="svg_48" d="m1141.776855,1191.437988c-22.756958,12.072021 -43.432007,23.311035 -69.519043,33.302002c-21.230957,5.273071 -20.397949,-7.77002 -46.207275,0.833008c-7.354431,5.828003 -7.215637,14.153076 -1.248901,20.396973c6.93811,6.800049 11.7948,11.102051 17.900391,17.069092c1.942993,8.603027 2.219971,15.957031 3.329956,26.224976c4.162964,12.628052 13.320923,11.93396 21.229858,5.828979c3.468994,-4.302002 7.770996,-8.18689 10.407104,-12.905029c3.60791,-6.243896 7.631958,-13.321045 12.488892,-19.148926l62.859009,-33.302979"/>
       <path stroke="#000000" fill="none" fill-rule="evenodd" stroke-width="17" stroke-linecap="square" stroke-linejoin="round" stroke-opacity="0.991228" id="svg_47" d="m1338.263916,1123.583008c25.810059,-12.765991 47.040039,-23.034912 70.352051,-34.552002c14.29187,-11.932983 10.684937,-23.450928 22.063965,-32.053955c11.239014,-10.684937 18.731934,-8.047974 22.894897,-2.081055c4.024048,10.129028 5.967041,20.259033 5.412109,30.805054c10.68396,9.851929 16.374023,15.541016 22.47998,24.562012c0.831909,11.378052 -9.158936,16.095093 -21.231079,16.234009c-15.81897,2.914063 -18.316895,-7.077026 -36.217041,0l-94.496948,44.541992l0,0"/>
       <path stroke="#000000" fill="none" fill-rule="evenodd" stroke-width="17" stroke-linejoin="round" stroke-opacity="0.991228" id="svg_46" d="m1134.184937,1124.571045c-26.100098,-12.755981 -47.784058,-22.273926 -73.590088,-36.500977c-14.030884,-11.186035 -9.516968,-23.843994 -26.491333,-34.145996c-7.456909,-3.728027 -12.853394,-5.395996 -18.838684,4.709961c-3.82666,9.028076 -3.532288,18.643066 -4.120972,27.965088c-6.672119,7.161865 -14.227295,11.381958 -19.722046,20.310913c-7.947693,12.756104 4.120911,16.975098 10.596802,18.545044c18.446289,4.610962 25.118225,-3.729004 42.092468,-0.295044c33.066772,15.405029 66.426758,31.398071 98.315796,47.097046"/>
      </g>
     </g>
    </g>
   </g>
  </g>
 </g>
</svg>