<svg width="160" height="160" xmlns="http://www.w3.org/2000/svg">
 <!-- Created with SVG-edit - http://svg-edit.googlecode.com/ -->
 <defs>
  <linearGradient spreadMethod="pad" id="svg_14">
   <stop offset="0" stop-opacity="0.996094" stop-color="#ffff00"/>
   <stop offset="1" stop-opacity="0.996094" stop-color="#bfbf00"/>
  </linearGradient>
  <linearGradient id="svg_15">
   <stop offset="0.015625" stop-opacity="0.996094" stop-color="#ff0000"/>
   <stop offset="0.074219" stop-color="#000000"/>
   <stop offset="1" stop-color="#000000"/>
  </linearGradient>
  <linearGradient y2="0" x2="1" y1="0" x1="0" id="svg_16">
   <stop offset="0.015625" stop-opacity="0.996094" stop-color="#ff0000"/>
   <stop offset="0.53125" stop-color="#000000"/>
   <stop offset="1" stop-color="#000000"/>
  </linearGradient>
  <linearGradient y2="0.5" x2="1" y1="0" x1="1" id="svg_17">
   <stop offset="0.015625" stop-opacity="0.996094" stop-color="#ff0000"/>
   <stop offset="0.53125" stop-color="#000000"/>
   <stop offset="1" stop-color="#000000"/>
  </linearGradient>
  <linearGradient y2="0.5" x2="1" y1="0" x1="1" id="svg_18">
   <stop offset="0.015625" stop-opacity="0.996094" stop-color="#ff0000"/>
   <stop offset="0.527344" stop-opacity="0.996094" stop-color="#ffffff"/>
   <stop offset="1" stop-opacity="0.996094" stop-color="#ffffff"/>
  </linearGradient>
  <linearGradient y2="0.5" x2="1" y1="0" x1="1" id="svg_19">
   <stop offset="0.015625" stop-opacity="0.992188" stop-color="#000000"/>
   <stop offset="0.527344" stop-opacity="0.996094" stop-color="#ffffff"/>
   <stop offset="1" stop-opacity="0.996094" stop-color="#ffffff"/>
  </linearGradient>
  <linearGradient y2="0.5" x2="1" y1="0" x1="1" id="svg_20">
   <stop offset="0.007813" stop-opacity="0.988281" stop-color="#969696"/>
   <stop offset="0.527344" stop-opacity="0.992188" stop-color="#707070"/>
   <stop offset="1" stop-opacity="0.992188" stop-color="#3f3f3f"/>
  </linearGradient>
  <linearGradient y2="1" x2="1" y1="0" x1="1" id="svg_21">
   <stop offset="0.007813" stop-opacity="0.996094" stop-color="#7f00ff"/>
   <stop offset="0.132813" stop-opacity="0.996094" stop-color="#0000ff"/>
   <stop offset="0.273438" stop-opacity="0.996094" stop-color="#00ffff"/>
   <stop offset="0.40625" stop-opacity="0.996094" stop-color="#00ff7f"/>
   <stop offset="0.507813" stop-opacity="0.996094" stop-color="#00ff00"/>
   <stop offset="0.582031" stop-opacity="0.996094" stop-color="#00ff00"/>
   <stop offset="0.671875" stop-opacity="0.996094" stop-color="#00ff00"/>
   <stop offset="0.761719" stop-opacity="0.996094" stop-color="#ffff00"/>
   <stop offset="0.835938" stop-opacity="0.996094" stop-color="#ff7f00"/>
   <stop offset="0.910156" stop-opacity="0.996094" stop-color="#ff0000"/>
  </linearGradient>
  <linearGradient y2="1" x2="1" y1="0" x1="1" id="svg_22">
   <stop offset="0.007813" stop-opacity="0.996094" stop-color="#7f00ff"/>
   <stop offset="0.132813" stop-opacity="0.996094" stop-color="#0000ff"/>
   <stop offset="0.273438" stop-opacity="0.996094" stop-color="#00ffff"/>
   <stop offset="0.40625" stop-opacity="0.996094" stop-color="#00ff7f"/>
   <stop offset="0.507813" stop-opacity="0.996094" stop-color="#00ff00"/>
   <stop offset="0.582031" stop-opacity="0.996094" stop-color="#00ff00"/>
   <stop offset="0.671875" stop-opacity="0.996094" stop-color="#00ff00"/>
   <stop offset="0.761719" stop-opacity="0.996094" stop-color="#ffff00"/>
   <stop offset="0.835938" stop-opacity="0.996094" stop-color="#ff7f00"/>
   <stop offset="0.910156" stop-opacity="0.996094" stop-color="#ff0000"/>
  </linearGradient>
  <linearGradient y2="1" x2="1" y1="0" x1="1" id="svg_31">
   <stop offset="0" stop-opacity="0.398438" stop-color="#ffffff"/>
   <stop offset="1" stop-opacity="0" stop-color="#ffffff"/>
  </linearGradient>
  <linearGradient y2="0" x2="1" y1="0.425781" x1="1" id="svg_32">
   <stop offset="0" stop-opacity="0.394531" stop-color="#ffffff"/>
   <stop offset="1" stop-opacity="0" stop-color="#ffffff"/>
  </linearGradient>
  <linearGradient y2="0.421875" x2="1" y1="0.710938" x1="0.996094" id="svg_33">
   <stop offset="0" stop-opacity="0.394531" stop-color="#ffffff"/>
   <stop offset="1" stop-opacity="0" stop-color="#ffffff"/>
  </linearGradient>
 </defs>
 <g>
  <title>Layer 1</title>
  <path stroke="#000000" id="svg_41" d="m31.881878,75.147202c-1.810513,10.598602 -6.431152,20.727196 -6.742836,31.65657c0.413891,6.327301 -3.688473,9.726517 -9.30809,9.606873c-6.040897,6.478928 0.746273,16.718704 7.581261,19.333954c6.978718,4.845261 15.633144,-0.568863 22.545002,3.777191c9.176743,7.421188 13.009499,20.580063 9.841621,32.115417c-3.146515,9.522598 12.967934,6.059402 6.904022,-1.55275c-4.678467,-7.439804 8.827438,-4.980072 5.369247,2.08284c-0.654221,5.670776 4.041664,7.507156 1.952553,12.999939c5.445099,3.230164 -0.455406,5.039047 -3.773758,5.648331c-7.76545,4.005142 1.40509,-7.174713 -4.748116,-10.481293c-5.632591,1.266968 -1.814995,11.027145 -3.749069,9.900055c-3.982735,-3.225693 -3.97879,-15.282761 -10.66098,-7.415039c-2.218231,-9.695068 1.82737,-19.791077 -1.289902,-29.428864c1.279259,-7.198822 -9.705727,-9.68042 -8.315269,-1.332611c0.552002,12.740479 -3.188641,25.456833 -1.041206,38.135529c2.953911,7.819992 11.225357,11.343231 16.412651,17.377365c4.263466,4.652664 9.78714,9.627701 16.421638,8.162537c7.52285,-0.336929 15.060287,-1.055756 22.552322,0.179169c9.418755,0.308258 16.610863,-7.39595 24.650368,-11.352249c9.450195,-7.764374 7.963654,-21.631393 7.020828,-32.677582c-1.156281,-6.819214 1.379791,-13.642349 0.907516,-20.398148c-6.814743,-8.6241 -12.405212,6.534531 -10.462769,13.048248c-0.002762,8.192245 1.520203,18.746521 -6.035812,24.083755c-6.232895,-0.162857 -12.16658,2.180603 -18.449455,0.955215c-5.099686,3.131943 -13.356491,3.051636 -15.039581,-4.404419c-0.671089,-6.620956 2.228943,-13.562637 -1.712234,-19.741653c3.46209,3.083649 9.502472,-2.664093 6.13633,4.251129c-4.106201,5.629257 3.477341,14.30394 6.331215,5.995361c0.946815,-5.575302 -4.096107,-12.974106 4.193871,-11.779587c1.691429,1.966064 -5.772438,15.721329 4.430817,12.244598c7.274124,-1.647644 -1.294395,-13.452545 8.555603,-13.493011c4.768921,-5.807236 3.483459,-16.691147 10.777786,-21.095581c8.131653,-5.692108 20.827148,-1.583099 26.629333,-11.223694c4.947525,-4.932846 2.619797,-18.607208 -5.911667,-14.076431c-10.662628,1.075409 -2.200806,-14.938492 -2.497894,-20.938919c2.510834,-5.225494 -3.052139,-16.226776 -1.135483,-17.393692c3.619354,5.728622 4.916,12.42881 4.138229,19.123901c-0.067413,5.677521 -2.393982,21.064194 5.23497,11.578583c2.583847,-6.610321 1.829681,-14.097801 3.671646,-20.974869c3.547989,-14.848076 -2.805634,-29.70401 -9.891602,-42.279953c-6.03186,-6.770416 -13.692917,-12.167213 -20.88504,-17.481472c-12.099716,-4.707684 -25.460167,-5.550667 -38.239342,-4.370964c-11.302917,2.027119 -23.25663,4.163528 -32.261475,12.136784c-8.775177,5.349403 -17.180302,12.453362 -20.649147,22.732422c-3.023506,8.280449 -8.319176,16.713661 -5.912823,25.912254c2.301903,7.66774 1.081036,15.630898 1.453365,23.468269c3.924263,8.957703 7.62677,-4.583572 7.261154,-9.062164c0.215637,-8.493805 4.547626,-16.011086 7.7402,-23.551346l0,0zm72.054188,18.221436c8.066467,0.598663 18.282074,5.245682 18.501648,14.935089c1.227585,9.723129 -6.366562,19.148087 -16.099792,18.193939c-8.839226,-0.750244 -14.495461,-8.649933 -13.905777,-17.531799c-2.960625,-6.368271 1.645981,-13.188652 7.826096,-14.652115c1.200104,-0.417229 2.429428,-0.729469 3.677826,-0.945114l0,0zm-54.440918,0.828331c9.358696,-1.721779 20.007301,4.283699 20.036537,15.000816c0.879951,10.35997 -9.751831,12.390045 -17.006828,14.986206c-5.018227,3.352631 -10.232483,0.231369 -14.401611,-3.146484c-5.411366,-5.858368 -3.820427,-17.665512 1.894173,-23.013947c2.768028,-2.120537 6.199257,-2.954468 9.47773,-3.826591zm32.023323,27.331871c4.532478,6.441879 9.970802,16.264969 4.110191,23.577789c-5.201935,4.31517 -5.85611,-6.138596 -11.315186,-1.21579c-5.120491,-4.63974 -0.397636,-14.082642 3.196449,-18.796509c1.183258,-1.357361 2.538315,-2.552399 4.008545,-3.565491z" stroke-linecap="null" stroke-linejoin="null" stroke-dasharray="null" stroke-width="2" fill="#000000"/>
  <path stroke="#000000" id="svg_42" d="m10.1478,96.015869c93.460491,-7.160942 124.437328,83.041779 145.571651,44.167999c21.134293,-38.873764 -16.026566,-201.859337 -91.887741,-132.792717c-55.644447,21.332638 -53.68391,89.186333 -53.68391,88.624718z" stroke-linecap="null" stroke-linejoin="null" stroke-dasharray="null" stroke-width="0" fill="url(#svg_33)"/>
  <path stroke="#ffffff" id="svg_43" d="m57.600952,41.823814c0,0 -18.251236,-0.280792 -26.674881,3.369461c-5.615738,1.965492 -15.443321,5.896545 -5.054134,22.182274c10.389141,16.285675 4.773361,6.738876 12.63541,24.147743c-12.073853,4.492577 -22.743813,-0.842377 -21.901436,0.842354c1.403881,5.615753 -1.403934,9.827606 -0.561558,10.108398c0.842331,0.280777 25.551678,-3.088699 29.201931,-5.615753c3.650246,-2.52713 -5.615784,-22.182297 -17.128082,-37.344849c-10.669956,-15.443314 27.236443,-10.389145 28.078773,-8.704422c0.842377,1.684723 1.403976,-8.985207 1.403976,-8.985207z" stroke-width="2" fill="#ffffff"/>
  <path stroke="#ffffff" id="svg_44" d="m57.600952,75.237572c0,0 0.280785,-13.758621 1.684715,-12.635475c1.403938,1.123184 19.374382,42.399033 20.77832,47.453247c1.403984,5.054138 5.054184,-45.768478 24.709343,-82.832516c19.655167,-37.064026 3.650238,18.251225 3.088699,19.65517c-0.5616,1.403931 -1.403992,-15.724152 -3.369461,-14.320206c-1.9655,1.403946 -20.497559,49.980278 -22.463051,85.078773c-1.96553,35.098541 -5.054222,-23.586151 -21.901474,-49.699463c-16.847298,-26.113289 -2.527092,7.300468 -2.527092,7.300468z" stroke-linecap="null" stroke-linejoin="null" stroke-dasharray="null" stroke-width="2" fill="#ffffff"/>
  <path stroke="#ffffff" id="svg_45" d="m136.502411,51.370605c0,0 2.527039,14.32019 -13.477844,10.950722c-16.004913,-3.369461 -26.394058,22.463043 -13.477829,32.009834c12.916214,9.546799 31.448242,-2.246284 37.06398,-10.10836c5.615784,-7.862068 -19.374298,-4.773407 -21.33989,-4.492577c-1.965424,0.280777 -2.246262,2.807846 -0.561508,2.807846c1.684708,0 22.463043,-4.773384 19.655167,-0.842331c-2.807907,3.931007 -16.004959,19.093536 -32.009888,11.231491c-16.004906,-7.862053 1.403946,-29.20195 14.320221,-28.92115c12.916214,0.280785 9.827591,-12.635475 9.827591,-12.635475z" stroke-linecap="null" stroke-linejoin="null" stroke-dasharray="null" stroke-width="2" fill="#ffffff"/>
  <g id="svg_46">
   <path stroke="#ffffff" id="svg_47" fill-opacity="0.5" d="m54.823715,34.902359c0,0 -20.110626,-0.309418 -29.392918,3.712585c-6.18803,2.166008 -17.016872,6.497444 -5.569168,24.442581c11.447708,17.94519 5.259762,7.425713 13.92318,26.608055c-13.304314,4.950851 -25.06147,-0.927734 -24.133198,0.928276c1.547157,6.188034 -1.547146,10.828903 -0.618824,11.138336c0.928242,0.309433 28.155132,-3.403152 32.177708,-6.188034c4.022018,-2.784309 -6.187988,-24.442047 -18.873436,-41.149498c-11.757168,-17.017151 30.011742,-11.447723 30.939453,-9.591721c0.928337,1.856575 1.547203,-9.900581 1.547203,-9.900581z" stroke-width="0" fill="#00ffe1"/>
   <path stroke="#ffffff" id="svg_48" fill-opacity="0.5" d="m54.620407,71.339653c0,0 0.313896,-15.407928 1.886299,-14.150017c1.572411,1.257935 21.696503,47.481277 23.268906,53.140854c1.572449,5.66008 5.660126,-51.253944 27.671135,-92.760654c22.010956,-41.506569 4.087677,20.438618 3.45871,22.011013c-0.628983,1.572426 -1.572357,-17.608841 -3.773224,-16.036575c-2.20137,1.572224 -22.954391,55.970825 -25.155807,95.27668c-2.200813,39.305237 -5.659515,-26.413773 -24.526283,-55.6567c-18.866669,-29.243332 -2.829735,8.1754 -2.829735,8.1754z" stroke-linecap="null" stroke-linejoin="null" stroke-dasharray="null" stroke-width="0" fill="#00ffe1"/>
   <path stroke="#ffffff" id="svg_49" fill-opacity="0.5" d="m138.993866,47.05938c0,0 2.725861,15.446144 -14.538116,11.81218c-17.263412,-3.634521 -28.469688,24.229202 -14.537552,34.526825c13.93222,10.297615 33.921494,-2.422638 39.978638,-10.902992c6.057709,-8.480377 -20.897919,-5.149117 -23.017929,-4.846397c-2.119919,0.303253 -2.423157,3.029106 -0.605942,3.029106c1.817322,0 24.229797,-5.149094 21.201202,-0.908585c-3.029129,4.239868 -17.263962,20.59523 -34.527374,12.114845c-17.26342,-8.480354 1.514618,-31.498787 15.446136,-31.196121c13.932114,0.303261 10.600937,-13.62886 10.600937,-13.62886z" stroke-linecap="null" stroke-linejoin="null" stroke-dasharray="null" stroke-width="0" fill="#00ffe1"/>
  </g>
  <g id="svg_50">
   <path stroke="#ffffff" id="svg_51" fill-opacity="0.5" d="m57.275787,38.169075c0,0 -20.110573,-0.309433 -29.392906,3.71257c-6.188,2.166023 -17.016884,6.497459 -5.569122,24.442612c11.447708,17.94516 5.259705,7.425728 13.923134,26.60804c-13.304272,4.950836 -25.061436,-0.927727 -24.133156,0.928284c1.547146,6.188004 -1.547146,10.828857 -0.618866,11.138306c0.928326,0.309418 28.155174,-3.403152 32.17775,-6.188049c4.022018,-2.784286 -6.187988,-24.441986 -18.873436,-41.14946c-11.757164,-17.017166 30.01178,-11.447708 30.939499,-9.591713c0.928238,1.856567 1.547104,-9.900589 1.547104,-9.900589z" stroke-width="0" fill="#ff0000"/>
   <path stroke="#ffffff" id="svg_52" fill-opacity="0.5" d="m57.072479,74.606354c0,0 0.31395,-15.407951 1.88636,-14.150024c1.572388,1.257935 21.696495,47.481277 23.268898,53.140839c1.572449,5.660141 5.660172,-51.253937 27.671082,-92.760632c22.011017,-41.50658 4.087723,20.438625 3.458801,22.011036c-0.629013,1.572411 -1.572433,-17.608845 -3.77327,-16.036587c-2.201355,1.572224 -22.95443,55.970814 -25.1558,95.276661c-2.200813,39.305267 -5.659569,-26.413719 -24.526237,-55.656685c-18.866768,-29.243347 -2.829834,8.175392 -2.829834,8.175392z" stroke-linecap="null" stroke-linejoin="null" stroke-dasharray="null" stroke-width="0" fill="#ff0000"/>
   <path stroke="#ffffff" id="svg_53" fill-opacity="0.5" d="m141.445938,50.326073c0,0 2.725906,15.446152 -14.538071,11.812187c-17.263412,-3.634499 -28.469673,24.229233 -14.537491,34.526825c13.932114,10.297638 33.921387,-2.422638 39.978561,-10.903c6.057724,-8.480347 -20.897888,-5.149055 -23.017853,-4.846382c-2.119965,0.303246 -2.423218,3.029121 -0.605942,3.029121c1.817261,0 24.229767,-5.149086 21.201157,-0.908653c-3.02916,4.239914 -17.263977,20.595299 -34.52739,12.114914c-17.263359,-8.480385 1.514618,-31.498802 15.446136,-31.196114c13.932175,0.30323 10.600891,-13.628899 10.600891,-13.628899z" stroke-linecap="null" stroke-linejoin="null" stroke-dasharray="null" stroke-width="0" fill="#ff0000"/>
  </g>
 </g>
</svg>